<?xml version="1.0" encoding="UTF-8"?> <svg xmlns="http://www.w3.org/2000/svg" id="color" height="512" viewBox="0 0 340 340" width="512"><path d="m185.238 56.577h18.536c5.1-8.422 6.611-18.485 7.055-23.546a4.273 4.273 0 0 0 -2.784-4.392 101.048 101.048 0 0 0 -18.276-4.762 207.482 207.482 0 0 1 -4.531 32.7z" fill="#991758"></path><path d="m194.342 18.5a88.029 88.029 0 0 0 -17.011-.668v33.937h16.425a210.918 210.918 0 0 0 4.273-28.74 4.237 4.237 0 0 0 -3.687-4.529z" fill="#fc6392"></path><path d="m177.331 29.854v21.915h10.049a50.54 50.54 0 0 0 -4.133-23.124 3.081 3.081 0 0 0 -5.916 1.209z" fill="#e84688"></path><path d="m160.772 23.829c.617 8.615.4 25.088-7.506 41.39l27.152-7.719s3.992-18.362-.251-36.8a7.04 7.04 0 0 0 -8.21-5.336l-5.529 1.084a7.013 7.013 0 0 0 -5.656 7.381z" fill="#fc6392"></path><path d="m202.961 116.148s22.041 3.411 39.49-4.231a7.488 7.488 0 0 1 10.106 4.219l3.867 10.636s-11.995 8.568-30.844 8.911-22.619-19.535-22.619-19.535z" fill="#991758"></path><path d="m218.383 135.687s22.883-2.426 42.164-12.522a7.739 7.739 0 0 1 10.67 3.853l1.421 3.319a7.768 7.768 0 0 1 -2.745 9.463 46.711 46.711 0 0 1 -26.492 8.221z" fill="#e84688"></path><path d="m220.506 73.223-2.593 15.453a4.859 4.859 0 0 1 -4.954 4.038c-7.693-.219-23.114 2.276-21.511 26.148l-33.312 3.214s2.887-60.78 62.37-53.474z" fill="#81afff"></path><path d="m117.227 153.342s-5.552-93.507 62.241-108.409c0 0 29.487-7.1 54.68 11.957a4.017 4.017 0 0 1 1.169 4.969l-5.017 10.215a4 4 0 0 1 -4.487 2.145c-11.428-2.662-51.4-8.308-55.406 41.72z" fill="#e84688"></path><path d="m67.377 136.125-2.464 6.463a5.322 5.322 0 0 0 3.416 6.99c6.583 2.016 19.1 4.189 36.36-.139l1.892-18.62s-15.928 5.256-33.247 1.977a5.318 5.318 0 0 0 -5.957 3.329z" fill="#991758"></path><path d="m50.571 166.951 1.348 8.209a5.156 5.156 0 0 0 5.715 4.281c11.178-1.363 38.732-5.809 54.768-17.813l-3.336-17.784s-29.337 13.6-54.161 17.18a5.141 5.141 0 0 0 -4.334 5.927z" fill="#e84688"></path><path d="m115.217 56.973h10.483a6.653 6.653 0 0 1 6.612 5.848 131.552 131.552 0 0 1 -.934 35.952c-3.93 24.651-6.788 77.17-6.788 77.17s-10.976 74.5-9.822 119.207a5.937 5.937 0 0 1 -4.485 5.929l-10.358 2.59a5.926 5.926 0 0 1 -7.331-5.139 209.8 209.8 0 0 1 4.843-67.925s2.5-46.088 4.287-59.664-1.071-33.94 3.93-59.664c3.495-17.973 3.327-37.343 2.909-47.382a6.654 6.654 0 0 1 6.654-6.922z" fill="#81afff"></path><path d="m133.123 125.321c-5.517 9.736-18.9 26.968-42.7 42.271a27.687 27.687 0 0 0 -12.77 24.366c.659 16.291 4.56 41.418 20.173 63.537 0 0 25.849 37.376 78.178 49.632a211.772 211.772 0 0 1 33.509 11.1c10.74 4.5 25.91 9.086 42.257 8.484a36.3 36.3 0 0 0 33.065-24.205c4.953-14.317 7.568-37.425-.482-73.489-1.5-6.706-2.873-13.445-3.986-20.225-3.252-19.815-16.8-70.77-71.272-91.2a82.315 82.315 0 0 0 -18.655-4.555c-10.794-1.355-28.868-2.422-44.794 2.379a21.761 21.761 0 0 0 -2.576.959s-7.515 6.655-9.947 10.946z" fill="#fc6392"></path><g fill="#e84688"><path d="m127.961 232.8c-16.85-28.7-6.376-50.868.529-60.767a75.4 75.4 0 0 0 9.56-18.428c7.82-22.631 6.544-34.226 5.024-39.216a22.97 22.97 0 0 0 -10.591 9.687c-5.517 9.737-18.264 28.209-42.065 43.512a27.687 27.687 0 0 0 -12.77 24.366c.1 2.451.273 5.1.548 7.914a108.607 108.607 0 0 1 13.87-11.928 7.051 7.051 0 0 1 11.141 6.5c-.049.422-.094.845-.138 1.267a71.176 71.176 0 0 0 9.213 42.5 252.63 252.63 0 0 0 50.818 63.228c4.11 1.387 8.4 2.637 12.9 3.692a211.772 211.772 0 0 1 33.509 11.1c-50.94-34.627-81.548-83.427-81.548-83.427z"></path><path d="m194.966 260.744a56.987 56.987 0 0 0 -24.122-6.093c-.561-.024-1.115-.054-1.663-.094-13.786-1-32.42-7.75-40.846-20.187l-7.755-13.417a4 4 0 0 0 -6.926 4l7.823 13.537c.044.078.092.153.142.228 9.885 14.73 31.282 22.671 46.98 23.815.628.046 1.264.082 1.912.109a49.091 49.091 0 0 1 20.765 5.2 49.864 49.864 0 0 1 13.624 10.289 4 4 0 0 0 5.864-5.444 57.857 57.857 0 0 0 -15.798-11.943z"></path><path d="m149.935 227.587a4 4 0 0 0 5.758.963 4.115 4.115 0 0 0 .82-5.52 42.092 42.092 0 0 1 -6.207-14.993 18.491 18.491 0 0 1 6.712-17.8c1.023-.844 2.042-1.766 3.029-2.742a54.335 54.335 0 0 0 15.983-33.389 28.408 28.408 0 0 0 2.935 2.237c1.641 1.086 3.327 2.288 5.008 3.573a37.645 37.645 0 0 1 11.893 15.555c1.238 3 2.349 5.971 3.3 8.825a4 4 0 0 0 3.794 2.735 4.044 4.044 0 0 0 1.51-.295 4.127 4.127 0 0 0 2.23-5.136c-1-2.975-2.153-6.06-3.437-9.173a45.658 45.658 0 0 0 -14.431-18.861c-1.825-1.4-3.66-2.7-5.452-3.889a19.748 19.748 0 0 1 -8.488-12.459c-.046-.218-.1-.414-.148-.627-.014-.058-.027-.118-.042-.176a35.633 35.633 0 0 0 -2.218-6.862 57.819 57.819 0 0 0 -11.41-17.965 6.817 6.817 0 0 0 -7.8-1.533 2.781 2.781 0 0 0 -.818 4.5c4.546 4.594 12.944 14.514 15.156 26.954a45.631 45.631 0 0 1 -13.2 40.309c-.814.807-1.651 1.565-2.487 2.254a26.472 26.472 0 0 0 -9.47 25.545 50.079 50.079 0 0 0 7.48 17.97z"></path></g><path d="m268.311 261.073a59.068 59.068 0 0 0 -12.192-22.4 21.589 21.589 0 0 1 -5.33-15.291c.127-2.6.162-4.971.118-7.092.039-56.716-31.73-83.045-33.219-84.246a4 4 0 0 0 -5.028 6.222 47.054 47.054 0 0 1 4.132 4.054 55.517 55.517 0 0 1 14.865 33.92c.036.564.064 1.135.083 1.71a30.686 30.686 0 0 1 -10.36 23.5 38.057 38.057 0 0 0 -12.212 22.987 4.7 4.7 0 0 0 .289 2.465 3.838 3.838 0 0 0 3.626 2.469 4 4 0 0 0 3.962-3.485 30.141 30.141 0 0 1 9.729-18.529 39.489 39.489 0 0 0 12.378-21.974c3.239 12.927 4.926 29.018 2.741 48.267-1.364 4.547-12.4 43.8 5.972 64.7a4 4 0 0 0 5.641.366 4.2 4.2 0 0 0 .227-5.811c-12.2-14.108-8.182-39.947-5.578-51.447a30.249 30.249 0 0 0 1.931 2.473 50.99 50.99 0 0 1 10.579 19.507 4 4 0 0 0 3.849 2.918 4.043 4.043 0 0 0 1.47-.279 4.122 4.122 0 0 0 2.327-5.004z" fill="#991758"></path></svg> 