<?xml version="1.0" encoding="UTF-8"?> <svg xmlns="http://www.w3.org/2000/svg" id="icon" height="512" viewBox="0 0 500 500" width="512"><path d="m222.143 73.981s35.413-10.821 63.7-32.308a98.278 98.278 0 0 1 59.472-19.882l69.853 2.517.367 105.7s-152.819 17.96-193.392-56.027z" fill="#ffcec7"></path><path d="m415.423 23.514s-44.768-9.075-103.464 41.875a78.073 78.073 0 0 1 -47.635 19.281 73.344 73.344 0 0 1 -42.181-10.689s-110.229 31.782-57.375 92.133c0 0-128.258 66.049-118.682 210.775 10.223 44.1 37.94 75.6 77.411 98.634h205.012c30.82-42.236 58.672-258.605 86.914-452.009z" fill="#7aaeed"></path><path d="m46.086 376.889s-13.191 45.263 15.1 77.925a67.026 67.026 0 0 0 61.714 22.467 57.893 57.893 0 0 0 17.848-6.038c19.272-10.416 22.311-36.89 6.258-51.8a28.048 28.048 0 0 0 -32.768-3.931l-8.981 5.019 3.871-4.172a12.04 12.04 0 0 0 .752-15.485 12.022 12.022 0 0 0 -15.78-3.013c-10.967 6.622-30.773 11.658-48.014-20.972z" fill="#ffcec7"></path><path d="m175.23 295.3c-16.477-18.831-41.193 5.884-41.193 5.884s-24.716-24.715-41.193-5.884c-17.351 19.83 8.474 36.891 8.474 36.891 21.034 15.447 32.719 28.429 32.719 28.429s11.685-12.982 32.719-28.429c0-.001 25.825-17.062 8.474-36.891z" fill="#fff"></path><g fill="#497fce"><path d="m199.575 176.33s45 11.755 79.243-18.432a3.96 3.96 0 0 1 6.363 4.2c-3.911 12.071-13.46 28.952-36.729 36.47z"></path><path d="m403.233 475.524s3.2-30.188-17.723-75.119a124.009 124.009 0 0 1 -9.927-72.461 274.841 274.841 0 0 1 16.474-58.552l-19.757-4.057-108.376-28.142-115.965-40.715s-27.674.145-36.686 24.622c53.94 3.354 102.238 31.909 136.584 77.139 24.64 32.449 40.1 71.049 43.61 111.641 3.537 40.86-6.081 65.644-6.081 65.644z"></path><path d="m372.017 61.666-46.1 109.934a32.041 32.041 0 0 1 -36.727 18.835l-34.572-7.949-17.818 13.992 124.7 60.232 41.92-150.079z"></path></g><path d="m456.9 63.023c1.469-22.952-15.246-39.936-41.363-40.807-22.99-.766-38.924 13.378-43.968 41.784l-19.486 136.242a23.875 23.875 0 0 1 -31.268 18.9c-60.649-22.25-120.273-43.957-156.047-53.032 0 0-36.44-10-70.737 17.149a28.646 28.646 0 0 0 -12.586 18.149 18.666 18.666 0 0 0 23.015 22 53.094 53.094 0 0 0 9.159-3.34 59.7 59.7 0 0 1 32.959-5.384c12.082 1.6 27.907 6.511 46.771 18.6 37.077 23.752 77.911 53.611 143.45 77.008a59.2 59.2 0 0 0 74.389-32.564c18.421-43.409 41.012-141.289 45.712-214.705z" fill="#ffcec7"></path></svg> 