<?xml version="1.0" encoding="UTF-8"?> <!-- Generator: Adobe Illustrator 19.0.0, SVG Export Plug-In . SVG Version: 6.00 Build 0) --> <svg xmlns="http://www.w3.org/2000/svg" xmlns:xlink="http://www.w3.org/1999/xlink" version="1.1" id="Capa_1" x="0px" y="0px" viewBox="0 0 511.999 511.999" style="enable-background:new 0 0 511.999 511.999;" xml:space="preserve"> <path style="fill:#EF687E;" d="M95.608,151.005c-110.627-60.347-30.618-135.374,0-84.845 C126.231,15.631,206.245,90.658,95.608,151.005z"></path> <path style="fill:#F996B1;" d="M362.99,397.427c-70.252-38.323-19.444-85.967,0-53.879 C382.437,311.461,433.248,359.105,362.99,397.427z"></path> <rect x="374.599" y="-1.852" transform="matrix(-0.7071 -0.7071 0.7071 -0.7071 618.8917 412.7078)" style="fill:#4BBAED;" width="40.643" height="160.058"></rect> <path style="fill:#93D6F4;" d="M277.123,85.878c-60.803,0-110.094,49.291-110.094,110.094s49.291,110.094,110.094,110.094 s110.094-49.291,110.094-110.094S337.927,85.878,277.123,85.878z M277.123,265.423c-38.357,0-69.451-31.094-69.451-69.451 s31.095-69.451,69.451-69.451c38.357,0,69.451,31.094,69.451,69.451S315.48,265.423,277.123,265.423z"></path> <path style="fill:#EF687E;" d="M249.695,434.86h-26.016c-3.074,0-5.566-2.492-5.566-5.566v-64.091H177.47v64.091 c0,3.074-2.492,5.566-5.566,5.566h-26.017c-3.074,0-5.566,2.492-5.566,5.566v29.51c0,3.074,2.492,5.566,5.566,5.566h26.017 c3.074,0,5.566,2.492,5.566,5.566v25.365c0,3.074,2.492,5.566,5.566,5.566h29.51c3.074,0,5.566-2.492,5.566-5.566v-25.365 c0-3.074,2.492-5.566,5.566-5.566h26.016c3.074,0,5.566-2.492,5.566-5.566v-29.51C255.261,437.352,252.769,434.86,249.695,434.86z"></path> <path style="fill:#93D6F4;" d="M432.452,0h-68.825c-3.023,0-5.473,2.45-5.473,5.473V35.17c0,3.023,2.45,5.473,5.473,5.473h63.352 c3.023,0,5.473,2.45,5.473,5.473v63.352c0,3.023,2.45,5.473,5.473,5.473h29.697c3.023,0,5.473-2.45,5.473-5.473V40.643V5.473 c0-3.023-2.45-5.473-5.473-5.473H432.452z"></path> <path style="fill:#82CBF4;" d="M328.579,275.748c0-10.201-1.176-20.132-3.396-29.667c-12.478,11.971-29.404,19.342-48.06,19.342 c-12.652,0-24.502-3.4-34.718-9.31c2.656,6.012,4.143,12.651,4.143,19.635c0,8.711-2.307,16.888-6.326,23.973 c11.537,4.104,23.956,6.345,36.901,6.345c18.074,0,35.13-4.356,50.177-12.074C328.137,288.028,328.579,281.939,328.579,275.748z"></path> <path style="fill:#F996B1;" d="M197.791,165.654c-60.803,0-110.094,49.291-110.094,110.094s49.291,110.094,110.094,110.094 c60.804,0,110.094-49.291,110.094-110.094S258.594,165.654,197.791,165.654z M197.791,345.2c-38.357,0-69.451-31.095-69.451-69.451 s31.095-69.451,69.451-69.451c38.357,0,69.451,31.094,69.451,69.451S236.148,345.2,197.791,345.2z"></path> <path style="fill:#F28598;" d="M197.791,165.654c-18.058,0-35.099,4.347-50.137,12.053c-2.227,15.977-1.487,32.227,2.134,47.877 c12.472-11.938,29.375-19.287,48.003-19.287c12.635,0,24.472,3.391,34.679,9.287c-1.98-4.523-3.285-9.367-3.826-14.417 c-1.099-10.263,1.032-20.374,6.028-29.176C223.141,167.893,210.728,165.654,197.791,165.654z"></path> <path style="fill:#93D6F4;" d="M233.526,250.034c-29.858-24.078-34.543-67.802-10.465-97.66s67.802-34.543,97.66-10.465 l25.513-31.637c-47.331-38.169-116.642-30.741-154.81,16.59s-30.741,116.642,16.589,154.81L233.526,250.034z"></path> <g> </g> <g> </g> <g> </g> <g> </g> <g> </g> <g> </g> <g> </g> <g> </g> <g> </g> <g> </g> <g> </g> <g> </g> <g> </g> <g> </g> <g> </g> </svg> 