<svg width="60" height="60" viewBox="0 0 60 60" fill="none" xmlns="http://www.w3.org/2000/svg">
<path opacity="0.4" d="M42.2108 12.7871H34.8531C33.0202 12.7992 31.28 11.9839 30.1184 10.5688L27.6955 7.21906C26.5534 5.79153 24.8132 4.97236 22.983 5.00071H17.7815C8.44547 5.00071 5.00003 10.48 5.00003 19.7971V29.8684C4.98841 30.976 54.9891 30.9745 54.9923 29.8684V26.9402C55.0368 17.6231 51.6802 12.7871 42.2108 12.7871Z" fill="url(#paint0_linear_2407_69642)"/>
<path fill-rule="evenodd" clip-rule="evenodd" d="M52.0803 16.3587C52.8802 17.2939 53.4983 18.3696 53.9031 19.5309C54.6996 21.9176 55.0683 24.4257 54.9923 26.9402V40.0728C54.9891 41.1789 54.9074 42.2835 54.7478 43.3781C54.4438 45.3099 53.7642 47.1638 52.7472 48.8353C52.2797 49.6426 51.7121 50.388 51.0578 51.0536C48.0958 53.7721 44.1624 55.1872 40.1435 54.9801H19.8265C15.8012 55.1857 11.8615 53.7712 8.89002 51.0536C8.24351 50.3867 7.68341 49.6414 7.22287 48.8353C6.21187 47.165 5.54672 45.3094 5.26675 43.3781C5.08872 42.2853 4.99952 41.1799 5 40.0728V26.9402C4.99957 25.8434 5.05893 24.7474 5.17783 23.657C5.20283 23.4657 5.24034 23.2775 5.27745 23.0913C5.33932 22.7808 5.40012 22.4758 5.40012 22.1707C5.62576 20.8549 6.0374 19.5777 6.6227 18.3774C8.35653 14.6727 11.9131 12.7871 17.737 12.7871H42.1886C45.4506 12.5348 48.6882 13.5168 51.2579 15.5379C51.5538 15.7888 51.8289 16.0633 52.0803 16.3587ZM17.4258 38.8527H42.5887H42.6332C43.1853 38.8767 43.724 38.6791 44.1292 38.3039C44.5343 37.9288 44.772 37.4074 44.7893 36.8562C44.8206 36.3717 44.6611 35.8941 44.3448 35.5252C43.9809 35.0294 43.4045 34.7335 42.7888 34.7266H17.4258C16.2841 34.7266 15.3586 35.6502 15.3586 36.7896C15.3586 37.929 16.2841 38.8527 17.4258 38.8527Z" fill="url(#paint1_linear_2407_69642)"/>
<defs>
<linearGradient id="paint0_linear_2407_69642" x1="5" y1="17.8758" x2="54.365" y2="17.8758" gradientUnits="userSpaceOnUse">
<stop stop-color="#00C6FB"/>
<stop offset="1" stop-color="#0758D8"/>
</linearGradient>
<linearGradient id="paint1_linear_2407_69642" x1="5" y1="33.9177" x2="54.3737" y2="33.9177" gradientUnits="userSpaceOnUse">
<stop stop-color="#00C6FB"/>
<stop offset="1" stop-color="#0758D8"/>
</linearGradient>
</defs>
</svg>
